<?xml version="1.0" encoding="UTF-8" standalone="no"?>
<!-- Created with Inkscape (http://www.inkscape.org/) -->

<svg
   xmlns:dc="http://purl.org/dc/elements/1.1/"
   xmlns:cc="http://creativecommons.org/ns#"
   xmlns:rdf="http://www.w3.org/1999/02/22-rdf-syntax-ns#"
   xmlns:svg="http://www.w3.org/2000/svg"
   xmlns="http://www.w3.org/2000/svg"
   xmlns:xlink="http://www.w3.org/1999/xlink"
   xmlns:sodipodi="http://sodipodi.sourceforge.net/DTD/sodipodi-0.dtd"
   xmlns:inkscape="http://www.inkscape.org/namespaces/inkscape"
   width="210mm"
   height="297mm"
   viewBox="0 0 210 297"
   version="1.1"
   id="svg8"
   inkscape:export-filename="C:\Users\HASSAN\bitmap.png"
   inkscape:export-xdpi="96"
   inkscape:export-ydpi="96"
   sodipodi:docname="drawing.svg"
   inkscape:version="0.92.3 (2405546, 2018-03-11)">
  <defs
     id="defs2">
    <symbol
       id="Offpage">
      <title
         id="title2128">Off-Page Connector</title>
      <desc
         id="desc2130">Exit to or entry from a page. (IBM)</desc>
      <path
         inkscape:connector-curvature="0"
         d="m 14.552083,14.552083 h 10.583334 v 7.9375 L 19.84375,27.78125 14.552083,22.489583 Z"
         style="stroke-width:0.52916664"
         id="path2132" />
    </symbol>
    <symbol
       id="DownArrow">
      <title
         id="title1475">Down Arrow</title>
      <path
         inkscape:connector-curvature="0"
         d="M 9.525,16.66875 3.7041667,10.847917 V 6.8791667 L 7.9375,11.1125 V 2.6458333 h 3.175 V 11.1125 l 4.233333,-4.2333333 v 3.9687503 z"
         style="stroke:none;stroke-width:0.26458332"
         id="path1477" />
    </symbol>
  </defs>
  <sodipodi:namedview
     id="base"
     pagecolor="#ffffff"
     bordercolor="#666666"
     borderopacity="1.0"
     inkscape:pageopacity="0.0"
     inkscape:pageshadow="2"
     inkscape:zoom="0.35"
     inkscape:cx="-27.142857"
     inkscape:cy="560"
     inkscape:document-units="mm"
     inkscape:current-layer="layer1"
     showgrid="false"
     showguides="false"
     inkscape:snap-object-midpoints="true"
     inkscape:snap-nodes="false"
     inkscape:window-width="1366"
     inkscape:window-height="705"
     inkscape:window-x="-8"
     inkscape:window-y="-8"
     inkscape:window-maximized="1" />
  <metadata
     id="metadata5">
    <rdf:RDF>
      <cc:Work
         rdf:about="">
        <dc:format>image/svg+xml</dc:format>
        <dc:type
           rdf:resource="http://purl.org/dc/dcmitype/StillImage" />
        <dc:title></dc:title>
      </cc:Work>
    </rdf:RDF>
  </metadata>
  <g
     inkscape:label="Layer 1"
     inkscape:groupmode="layer"
     id="layer1">
    <rect
       style="fill:#ffffff;fill-opacity:1;stroke-width:0.26458332"
       id="rect56"
       width="73.327377"
       height="64.255951"
       x="27.970238"
       y="83.065468" />
    <path
       style="fill:none;stroke:#000000;stroke-width:0.26458332px;stroke-linecap:butt;stroke-linejoin:miter;stroke-opacity:1"
       d="m 78.619047,170.75595 -23.434524,23.43453 21.922619,29.48214 22.678569,-27.97024 z"
       id="path62"
       inkscape:connector-curvature="0"
       sodipodi:nodetypes="ccccc" />
    <path
       style="fill:#f9f9f9;fill-opacity:1;stroke-width:0.26458332"
       id="path66"
       d="m -223.94162,86.928075 c 1.54794,0.646211 3.13701,0.929394 4.79907,0.777798 0.89419,0.08165 1.59438,-0.603472 2.45055,-0.709006 0.20933,-0.0258 1.14127,0.05345 1.34935,0.06884 1.29779,0.08509 2.50176,0.637998 3.66301,1.181028 1.17923,0.267129 2.17529,0.859965 3.1987,1.468948 0.98656,0.506135 1.94035,1.065589 2.923,1.586024 0.94781,0.816494 1.93306,1.597515 2.80541,2.496323 0.91201,0.806794 2.14055,1.066916 3.18817,1.657458 0,0 -9.34476,6.127082 -9.34476,6.127082 v 0 c -1.18188,-0.55714 -2.46727,-0.95558 -3.3848,-1.939064 -0.82449,-0.800089 -1.69302,-1.574787 -2.64373,-2.220579 -0.97653,-0.552008 -1.97333,-1.065162 -2.94737,-1.621835 -0.98701,-0.595468 -2.05294,-0.961877 -3.12598,-1.370923 -1.06435,-0.481007 -2.19403,-0.843938 -3.37613,-0.793154 -1.27639,0.104873 -2.447,0.758293 -3.75866,0.648324 -1.76147,-0.0561 -3.45758,-0.535429 -5.11548,-1.113623 0,0 9.31965,-6.243643 9.31965,-6.243643 z"
       inkscape:connector-curvature="0" />
    <use
       id="use10266"
       style="fill:#cccccc;stroke:#000000"
       xlink:href="#DownArrow"
       x="0"
       y="0"
       width="100%"
       height="100%"
       transform="matrix(0.77341431,0,0,1.6830702,70.117111,180.97066)" />
  </g>
</svg>
